<svg xmlns="http://www.w3.org/2000/svg" width="402" height="528" viewBox="0 0 402 528">
<rect width="100%" height="100%" rx="10" fill="#10151f"/>
<rect x="12" y="12" width="99" height="18" fill="#10151f"/>
<text x="12" y="26" fill="#7dd3fc" font-family="DejaVu Sans Mono, monospace" font-size="15" font-weight="bold" xml:space="preserve" textLength="99" lengthAdjust="spacingAndGlyphs"> TILEBOARD </text>
<rect x="111" y="12" width="54" height="18" fill="#8de1bb"/>
<text x="111" y="26" fill="#10151f" font-family="DejaVu Sans Mono, monospace" font-size="15" font-weight="normal" xml:space="preserve" textLength="54" lengthAdjust="spacingAndGlyphs"> LIVE </text>
<rect x="165" y="12" width="225" height="18" fill="#10151f"/>
<rect x="12" y="30" width="378" height="18" fill="#10151f"/>
<text x="12" y="44" fill="#8c9bae" font-family="DejaVu Sans Mono, monospace" font-size="15" font-weight="normal" xml:space="preserve" textLength="378" lengthAdjust="spacingAndGlyphs"> Auto · small                             </text>
<rect x="12" y="48" width="378" height="18" fill="#10151f"/>
<rect x="12" y="66" width="9" height="18" fill="#10151f"/>
<rect x="21" y="66" width="9" height="18" fill="#161e2a"/>
<text x="21" y="80" fill="#334256" font-family="DejaVu Sans Mono, monospace" font-size="15" font-weight="normal" xml:space="preserve" textLength="9" lengthAdjust="spacingAndGlyphs">╭</text>
<rect x="30" y="66" width="99" height="18" fill="#161e2a"/>
<text x="30" y="80" fill="#7dd3fc" font-family="DejaVu Sans Mono, monospace" font-size="15" font-weight="bold" xml:space="preserve" textLength="99" lengthAdjust="spacingAndGlyphs"> CPU usage </text>
<rect x="129" y="66" width="243" height="18" fill="#161e2a"/>
<text x="129" y="80" fill="#334256" font-family="DejaVu Sans Mono, monospace" font-size="15" font-weight="normal" xml:space="preserve" textLength="243" lengthAdjust="spacingAndGlyphs">──────────────────────────╮</text>
<rect x="372" y="66" width="18" height="18" fill="#10151f"/>
<rect x="12" y="84" width="9" height="18" fill="#10151f"/>
<rect x="21" y="84" width="9" height="18" fill="#161e2a"/>
<text x="21" y="98" fill="#334256" font-family="DejaVu Sans Mono, monospace" font-size="15" font-weight="normal" xml:space="preserve" textLength="9" lengthAdjust="spacingAndGlyphs">│</text>
<rect x="30" y="84" width="9" height="18" fill="#161e2a"/>
<rect x="39" y="84" width="45" height="18" fill="#161e2a"/>
<text x="39" y="98" fill="#7dd3fc" font-family="DejaVu Sans Mono, monospace" font-size="15" font-weight="bold" xml:space="preserve" textLength="45" lengthAdjust="spacingAndGlyphs">24.5%</text>
<rect x="84" y="84" width="144" height="18" fill="#161e2a"/>
<text x="84" y="98" fill="#8c9bae" font-family="DejaVu Sans Mono, monospace" font-size="15" font-weight="normal" xml:space="preserve" textLength="144" lengthAdjust="spacingAndGlyphs">  8 logical CPUs</text>
<rect x="228" y="84" width="135" height="18" fill="#161e2a"/>
<rect x="363" y="84" width="9" height="18" fill="#161e2a"/>
<text x="363" y="98" fill="#334256" font-family="DejaVu Sans Mono, monospace" font-size="15" font-weight="normal" xml:space="preserve" textLength="9" lengthAdjust="spacingAndGlyphs">│</text>
<rect x="372" y="84" width="18" height="18" fill="#10151f"/>
<rect x="12" y="102" width="9" height="18" fill="#10151f"/>
<rect x="21" y="102" width="9" height="18" fill="#161e2a"/>
<text x="21" y="116" fill="#334256" font-family="DejaVu Sans Mono, monospace" font-size="15" font-weight="normal" xml:space="preserve" textLength="9" lengthAdjust="spacingAndGlyphs">│</text>
<rect x="30" y="102" width="18" height="18" fill="#161e2a"/>
<rect x="48" y="102" width="72" height="18" fill="#161e2a"/>
<text x="48" y="116" fill="#7dd3fc" font-family="DejaVu Sans Mono, monospace" font-size="15" font-weight="normal" xml:space="preserve" textLength="72" lengthAdjust="spacingAndGlyphs">────────</text>
<rect x="120" y="102" width="234" height="18" fill="#161e2a"/>
<text x="120" y="116" fill="#334256" font-family="DejaVu Sans Mono, monospace" font-size="15" font-weight="normal" xml:space="preserve" textLength="234" lengthAdjust="spacingAndGlyphs">──────────────────────────</text>
<rect x="354" y="102" width="9" height="18" fill="#161e2a"/>
<rect x="363" y="102" width="9" height="18" fill="#161e2a"/>
<text x="363" y="116" fill="#334256" font-family="DejaVu Sans Mono, monospace" font-size="15" font-weight="normal" xml:space="preserve" textLength="9" lengthAdjust="spacingAndGlyphs">│</text>
<rect x="372" y="102" width="18" height="18" fill="#10151f"/>
<rect x="12" y="120" width="9" height="18" fill="#10151f"/>
<rect x="21" y="120" width="9" height="18" fill="#161e2a"/>
<text x="21" y="134" fill="#334256" font-family="DejaVu Sans Mono, monospace" font-size="15" font-weight="normal" xml:space="preserve" textLength="9" lengthAdjust="spacingAndGlyphs">│</text>
<rect x="30" y="120" width="9" height="18" fill="#161e2a"/>
<rect x="39" y="120" width="315" height="18" fill="#161e2a"/>
<rect x="354" y="120" width="9" height="18" fill="#161e2a"/>
<rect x="363" y="120" width="9" height="18" fill="#161e2a"/>
<text x="363" y="134" fill="#334256" font-family="DejaVu Sans Mono, monospace" font-size="15" font-weight="normal" xml:space="preserve" textLength="9" lengthAdjust="spacingAndGlyphs">│</text>
<rect x="372" y="120" width="18" height="18" fill="#10151f"/>
<rect x="12" y="138" width="9" height="18" fill="#10151f"/>
<rect x="21" y="138" width="9" height="18" fill="#161e2a"/>
<text x="21" y="152" fill="#334256" font-family="DejaVu Sans Mono, monospace" font-size="15" font-weight="normal" xml:space="preserve" textLength="9" lengthAdjust="spacingAndGlyphs">│</text>
<rect x="30" y="138" width="9" height="18" fill="#161e2a"/>
<rect x="39" y="138" width="315" height="18" fill="#161e2a"/>
<text x="39" y="152" fill="#7dd3fc" font-family="DejaVu Sans Mono, monospace" font-size="15" font-weight="normal" xml:space="preserve" textLength="315" lengthAdjust="spacingAndGlyphs">▇▇▅▃▄▆▇▇▅▃▄▆▇▇▆▄▃▅▇▇▆▄▂▅▆▇▇▅▃▄▆▇▇▆▃</text>
<rect x="354" y="138" width="9" height="18" fill="#161e2a"/>
<rect x="363" y="138" width="9" height="18" fill="#161e2a"/>
<text x="363" y="152" fill="#334256" font-family="DejaVu Sans Mono, monospace" font-size="15" font-weight="normal" xml:space="preserve" textLength="9" lengthAdjust="spacingAndGlyphs">│</text>
<rect x="372" y="138" width="18" height="18" fill="#10151f"/>
<rect x="12" y="156" width="9" height="18" fill="#10151f"/>
<rect x="21" y="156" width="9" height="18" fill="#161e2a"/>
<text x="21" y="170" fill="#334256" font-family="DejaVu Sans Mono, monospace" font-size="15" font-weight="normal" xml:space="preserve" textLength="9" lengthAdjust="spacingAndGlyphs">╰</text>
<rect x="30" y="156" width="36" height="18" fill="#161e2a"/>
<text x="30" y="170" fill="#8c9bae" font-family="DejaVu Sans Mono, monospace" font-size="15" font-weight="normal" xml:space="preserve" textLength="36" lengthAdjust="spacingAndGlyphs"> 1s </text>
<rect x="66" y="156" width="306" height="18" fill="#161e2a"/>
<text x="66" y="170" fill="#334256" font-family="DejaVu Sans Mono, monospace" font-size="15" font-weight="normal" xml:space="preserve" textLength="306" lengthAdjust="spacingAndGlyphs">─────────────────────────────────╯</text>
<rect x="372" y="156" width="18" height="18" fill="#10151f"/>
<rect x="12" y="174" width="378" height="18" fill="#10151f"/>
<rect x="12" y="192" width="9" height="18" fill="#10151f"/>
<rect x="21" y="192" width="9" height="18" fill="#161e2a"/>
<text x="21" y="206" fill="#334256" font-family="DejaVu Sans Mono, monospace" font-size="15" font-weight="normal" xml:space="preserve" textLength="9" lengthAdjust="spacingAndGlyphs">╭</text>
<rect x="30" y="192" width="108" height="18" fill="#161e2a"/>
<text x="30" y="206" fill="#c4b5fd" font-family="DejaVu Sans Mono, monospace" font-size="15" font-weight="bold" xml:space="preserve" textLength="108" lengthAdjust="spacingAndGlyphs"> Local time </text>
<rect x="138" y="192" width="234" height="18" fill="#161e2a"/>
<text x="138" y="206" fill="#334256" font-family="DejaVu Sans Mono, monospace" font-size="15" font-weight="normal" xml:space="preserve" textLength="234" lengthAdjust="spacingAndGlyphs">─────────────────────────╮</text>
<rect x="372" y="192" width="18" height="18" fill="#10151f"/>
<rect x="12" y="210" width="9" height="18" fill="#10151f"/>
<rect x="21" y="210" width="9" height="18" fill="#161e2a"/>
<text x="21" y="224" fill="#334256" font-family="DejaVu Sans Mono, monospace" font-size="15" font-weight="normal" xml:space="preserve" textLength="9" lengthAdjust="spacingAndGlyphs">│</text>
<rect x="30" y="210" width="126" height="18" fill="#161e2a"/>
<rect x="156" y="210" width="72" height="18" fill="#161e2a"/>
<text x="156" y="224" fill="#c4b5fd" font-family="DejaVu Sans Mono, monospace" font-size="15" font-weight="bold" xml:space="preserve" textLength="72" lengthAdjust="spacingAndGlyphs">14:32:09</text>
<rect x="228" y="210" width="135" height="18" fill="#161e2a"/>
<rect x="363" y="210" width="9" height="18" fill="#161e2a"/>
<text x="363" y="224" fill="#334256" font-family="DejaVu Sans Mono, monospace" font-size="15" font-weight="normal" xml:space="preserve" textLength="9" lengthAdjust="spacingAndGlyphs">│</text>
<rect x="372" y="210" width="18" height="18" fill="#10151f"/>
<rect x="12" y="228" width="9" height="18" fill="#10151f"/>
<rect x="21" y="228" width="9" height="18" fill="#161e2a"/>
<text x="21" y="242" fill="#334256" font-family="DejaVu Sans Mono, monospace" font-size="15" font-weight="normal" xml:space="preserve" textLength="9" lengthAdjust="spacingAndGlyphs">│</text>
<rect x="30" y="228" width="333" height="18" fill="#161e2a"/>
<text x="30" y="242" fill="#d6dfeb" font-family="DejaVu Sans Mono, monospace" font-size="15" font-weight="normal" xml:space="preserve" textLength="333" lengthAdjust="spacingAndGlyphs">          Tue, 22 Sep 2026           </text>
<rect x="363" y="228" width="9" height="18" fill="#161e2a"/>
<text x="363" y="242" fill="#334256" font-family="DejaVu Sans Mono, monospace" font-size="15" font-weight="normal" xml:space="preserve" textLength="9" lengthAdjust="spacingAndGlyphs">│</text>
<rect x="372" y="228" width="18" height="18" fill="#10151f"/>
<rect x="12" y="246" width="9" height="18" fill="#10151f"/>
<rect x="21" y="246" width="9" height="18" fill="#161e2a"/>
<text x="21" y="260" fill="#334256" font-family="DejaVu Sans Mono, monospace" font-size="15" font-weight="normal" xml:space="preserve" textLength="9" lengthAdjust="spacingAndGlyphs">│</text>
<rect x="30" y="246" width="90" height="18" fill="#161e2a"/>
<rect x="120" y="246" width="153" height="18" fill="#161e2a"/>
<text x="120" y="260" fill="#8c9bae" font-family="DejaVu Sans Mono, monospace" font-size="15" font-weight="normal" xml:space="preserve" textLength="153" lengthAdjust="spacingAndGlyphs">Local · UTC+09:00</text>
<rect x="273" y="246" width="90" height="18" fill="#161e2a"/>
<rect x="363" y="246" width="9" height="18" fill="#161e2a"/>
<text x="363" y="260" fill="#334256" font-family="DejaVu Sans Mono, monospace" font-size="15" font-weight="normal" xml:space="preserve" textLength="9" lengthAdjust="spacingAndGlyphs">│</text>
<rect x="372" y="246" width="18" height="18" fill="#10151f"/>
<rect x="12" y="264" width="9" height="18" fill="#10151f"/>
<rect x="21" y="264" width="9" height="18" fill="#161e2a"/>
<text x="21" y="278" fill="#334256" font-family="DejaVu Sans Mono, monospace" font-size="15" font-weight="normal" xml:space="preserve" textLength="9" lengthAdjust="spacingAndGlyphs">│</text>
<rect x="30" y="264" width="333" height="18" fill="#161e2a"/>
<rect x="363" y="264" width="9" height="18" fill="#161e2a"/>
<text x="363" y="278" fill="#334256" font-family="DejaVu Sans Mono, monospace" font-size="15" font-weight="normal" xml:space="preserve" textLength="9" lengthAdjust="spacingAndGlyphs">│</text>
<rect x="372" y="264" width="18" height="18" fill="#10151f"/>
<rect x="12" y="282" width="9" height="18" fill="#10151f"/>
<rect x="21" y="282" width="9" height="18" fill="#161e2a"/>
<text x="21" y="296" fill="#334256" font-family="DejaVu Sans Mono, monospace" font-size="15" font-weight="normal" xml:space="preserve" textLength="9" lengthAdjust="spacingAndGlyphs">╰</text>
<rect x="30" y="282" width="36" height="18" fill="#161e2a"/>
<text x="30" y="296" fill="#8c9bae" font-family="DejaVu Sans Mono, monospace" font-size="15" font-weight="normal" xml:space="preserve" textLength="36" lengthAdjust="spacingAndGlyphs"> 1s </text>
<rect x="66" y="282" width="306" height="18" fill="#161e2a"/>
<text x="66" y="296" fill="#334256" font-family="DejaVu Sans Mono, monospace" font-size="15" font-weight="normal" xml:space="preserve" textLength="306" lengthAdjust="spacingAndGlyphs">─────────────────────────────────╯</text>
<rect x="372" y="282" width="18" height="18" fill="#10151f"/>
<rect x="12" y="300" width="378" height="18" fill="#10151f"/>
<rect x="12" y="318" width="9" height="18" fill="#10151f"/>
<rect x="21" y="318" width="9" height="18" fill="#161e2a"/>
<text x="21" y="332" fill="#334256" font-family="DejaVu Sans Mono, monospace" font-size="15" font-weight="normal" xml:space="preserve" textLength="9" lengthAdjust="spacingAndGlyphs">╭</text>
<rect x="30" y="318" width="72" height="18" fill="#161e2a"/>
<text x="30" y="332" fill="#93b1ff" font-family="DejaVu Sans Mono, monospace" font-size="15" font-weight="bold" xml:space="preserve" textLength="72" lengthAdjust="spacingAndGlyphs"> Memory </text>
<rect x="102" y="318" width="270" height="18" fill="#161e2a"/>
<text x="102" y="332" fill="#334256" font-family="DejaVu Sans Mono, monospace" font-size="15" font-weight="normal" xml:space="preserve" textLength="270" lengthAdjust="spacingAndGlyphs">─────────────────────────────╮</text>
<rect x="372" y="318" width="18" height="18" fill="#10151f"/>
<rect x="12" y="336" width="9" height="18" fill="#10151f"/>
<rect x="21" y="336" width="9" height="18" fill="#161e2a"/>
<text x="21" y="350" fill="#334256" font-family="DejaVu Sans Mono, monospace" font-size="15" font-weight="normal" xml:space="preserve" textLength="9" lengthAdjust="spacingAndGlyphs">│</text>
<rect x="30" y="336" width="9" height="18" fill="#161e2a"/>
<rect x="39" y="336" width="27" height="18" fill="#161e2a"/>
<text x="39" y="350" fill="#93b1ff" font-family="DejaVu Sans Mono, monospace" font-size="15" font-weight="bold" xml:space="preserve" textLength="27" lengthAdjust="spacingAndGlyphs">38%</text>
<rect x="66" y="336" width="180" height="18" fill="#161e2a"/>
<text x="66" y="350" fill="#8c9bae" font-family="DejaVu Sans Mono, monospace" font-size="15" font-weight="normal" xml:space="preserve" textLength="180" lengthAdjust="spacingAndGlyphs">  6.0 GiB / 16.0 GiB</text>
<rect x="246" y="336" width="117" height="18" fill="#161e2a"/>
<rect x="363" y="336" width="9" height="18" fill="#161e2a"/>
<text x="363" y="350" fill="#334256" font-family="DejaVu Sans Mono, monospace" font-size="15" font-weight="normal" xml:space="preserve" textLength="9" lengthAdjust="spacingAndGlyphs">│</text>
<rect x="372" y="336" width="18" height="18" fill="#10151f"/>
<rect x="12" y="354" width="9" height="18" fill="#10151f"/>
<rect x="21" y="354" width="9" height="18" fill="#161e2a"/>
<text x="21" y="368" fill="#334256" font-family="DejaVu Sans Mono, monospace" font-size="15" font-weight="normal" xml:space="preserve" textLength="9" lengthAdjust="spacingAndGlyphs">│</text>
<rect x="30" y="354" width="18" height="18" fill="#161e2a"/>
<rect x="48" y="354" width="108" height="18" fill="#161e2a"/>
<text x="48" y="368" fill="#93b1ff" font-family="DejaVu Sans Mono, monospace" font-size="15" font-weight="normal" xml:space="preserve" textLength="108" lengthAdjust="spacingAndGlyphs">────────────</text>
<rect x="156" y="354" width="198" height="18" fill="#161e2a"/>
<text x="156" y="368" fill="#334256" font-family="DejaVu Sans Mono, monospace" font-size="15" font-weight="normal" xml:space="preserve" textLength="198" lengthAdjust="spacingAndGlyphs">──────────────────────</text>
<rect x="354" y="354" width="9" height="18" fill="#161e2a"/>
<rect x="363" y="354" width="9" height="18" fill="#161e2a"/>
<text x="363" y="368" fill="#334256" font-family="DejaVu Sans Mono, monospace" font-size="15" font-weight="normal" xml:space="preserve" textLength="9" lengthAdjust="spacingAndGlyphs">│</text>
<rect x="372" y="354" width="18" height="18" fill="#10151f"/>
<rect x="12" y="372" width="9" height="18" fill="#10151f"/>
<rect x="21" y="372" width="9" height="18" fill="#161e2a"/>
<text x="21" y="386" fill="#334256" font-family="DejaVu Sans Mono, monospace" font-size="15" font-weight="normal" xml:space="preserve" textLength="9" lengthAdjust="spacingAndGlyphs">│</text>
<rect x="30" y="372" width="9" height="18" fill="#161e2a"/>
<rect x="39" y="372" width="315" height="18" fill="#161e2a"/>
<text x="39" y="386" fill="#8c9bae" font-family="DejaVu Sans Mono, monospace" font-size="15" font-weight="normal" xml:space="preserve" textLength="315" lengthAdjust="spacingAndGlyphs">10.0 GiB available                 </text>
<rect x="354" y="372" width="9" height="18" fill="#161e2a"/>
<rect x="363" y="372" width="9" height="18" fill="#161e2a"/>
<text x="363" y="386" fill="#334256" font-family="DejaVu Sans Mono, monospace" font-size="15" font-weight="normal" xml:space="preserve" textLength="9" lengthAdjust="spacingAndGlyphs">│</text>
<rect x="372" y="372" width="18" height="18" fill="#10151f"/>
<rect x="12" y="390" width="9" height="18" fill="#10151f"/>
<rect x="21" y="390" width="9" height="18" fill="#161e2a"/>
<text x="21" y="404" fill="#334256" font-family="DejaVu Sans Mono, monospace" font-size="15" font-weight="normal" xml:space="preserve" textLength="9" lengthAdjust="spacingAndGlyphs">│</text>
<rect x="30" y="390" width="9" height="18" fill="#161e2a"/>
<rect x="39" y="390" width="315" height="18" fill="#161e2a"/>
<text x="39" y="404" fill="#8c9bae" font-family="DejaVu Sans Mono, monospace" font-size="15" font-weight="normal" xml:space="preserve" textLength="315" lengthAdjust="spacingAndGlyphs">Swap  0.0 B / 2.0 GiB              </text>
<rect x="354" y="390" width="9" height="18" fill="#161e2a"/>
<rect x="363" y="390" width="9" height="18" fill="#161e2a"/>
<text x="363" y="404" fill="#334256" font-family="DejaVu Sans Mono, monospace" font-size="15" font-weight="normal" xml:space="preserve" textLength="9" lengthAdjust="spacingAndGlyphs">│</text>
<rect x="372" y="390" width="18" height="18" fill="#10151f"/>
<rect x="12" y="408" width="9" height="18" fill="#10151f"/>
<rect x="21" y="408" width="9" height="18" fill="#161e2a"/>
<text x="21" y="422" fill="#334256" font-family="DejaVu Sans Mono, monospace" font-size="15" font-weight="normal" xml:space="preserve" textLength="9" lengthAdjust="spacingAndGlyphs">│</text>
<rect x="30" y="408" width="333" height="18" fill="#161e2a"/>
<rect x="363" y="408" width="9" height="18" fill="#161e2a"/>
<text x="363" y="422" fill="#334256" font-family="DejaVu Sans Mono, monospace" font-size="15" font-weight="normal" xml:space="preserve" textLength="9" lengthAdjust="spacingAndGlyphs">│</text>
<rect x="372" y="408" width="18" height="18" fill="#10151f"/>
<rect x="12" y="426" width="9" height="18" fill="#10151f"/>
<rect x="21" y="426" width="9" height="18" fill="#161e2a"/>
<text x="21" y="440" fill="#334256" font-family="DejaVu Sans Mono, monospace" font-size="15" font-weight="normal" xml:space="preserve" textLength="9" lengthAdjust="spacingAndGlyphs">╰</text>
<rect x="30" y="426" width="36" height="18" fill="#161e2a"/>
<text x="30" y="440" fill="#8c9bae" font-family="DejaVu Sans Mono, monospace" font-size="15" font-weight="normal" xml:space="preserve" textLength="36" lengthAdjust="spacingAndGlyphs"> 2s </text>
<rect x="66" y="426" width="306" height="18" fill="#161e2a"/>
<text x="66" y="440" fill="#334256" font-family="DejaVu Sans Mono, monospace" font-size="15" font-weight="normal" xml:space="preserve" textLength="306" lengthAdjust="spacingAndGlyphs">─────────────────────────────────╯</text>
<rect x="372" y="426" width="18" height="18" fill="#10151f"/>
<rect x="12" y="444" width="378" height="18" fill="#10151f"/>
<rect x="12" y="462" width="9" height="18" fill="#10151f"/>
<rect x="21" y="462" width="360" height="18" fill="#10151f"/>
<rect x="381" y="462" width="9" height="18" fill="#10151f"/>
<rect x="12" y="480" width="9" height="18" fill="#10151f"/>
<rect x="21" y="480" width="360" height="18" fill="#10151f"/>
<text x="21" y="494" fill="#8c9bae" font-family="DejaVu Sans Mono, monospace" font-size="15" font-weight="normal" xml:space="preserve" textLength="360" lengthAdjust="spacingAndGlyphs">p profiles  [/] switch                  </text>
<rect x="381" y="480" width="9" height="18" fill="#10151f"/>
<rect x="12" y="498" width="9" height="18" fill="#10151f"/>
<rect x="21" y="498" width="360" height="18" fill="#10151f"/>
<text x="21" y="512" fill="#8c9bae" font-family="DejaVu Sans Mono, monospace" font-size="15" font-weight="normal" xml:space="preserve" textLength="360" lengthAdjust="spacingAndGlyphs">e edit  ? help  q quit                  </text>
<rect x="381" y="498" width="9" height="18" fill="#10151f"/>
</svg>
